<mxfile host="app.diagrams.net" modified="2022-06-30T15:29:00.296Z" agent="5.0 (Macintosh; Intel Mac OS X 10_15_7) AppleWebKit/537.36 (KHTML, like Gecko) Chrome/96.0.4664.110 YaBrowser/22.1.0.2500 Yowser/2.5 Safari/537.36" etag="FqCCUkcQL1YxwkROw14O" version="20.0.4" type="github">
  <diagram id="ulzMr2vNTdn3lmzr3g9W" name="Page-1">
    <mxGraphModel dx="3560" dy="1753" grid="1" gridSize="10" guides="1" tooltips="1" connect="1" arrows="1" fold="1" page="1" pageScale="1" pageWidth="1169" pageHeight="1654" math="0" shadow="0">
      <root>
        <mxCell id="0" />
        <mxCell id="1" parent="0" />
        <mxCell id="WWwP8-xIb5K2eix_RV-0-9" value="" style="edgeStyle=orthogonalEdgeStyle;rounded=0;orthogonalLoop=1;jettySize=auto;html=1;" edge="1" parent="1" source="WWwP8-xIb5K2eix_RV-0-1" target="WWwP8-xIb5K2eix_RV-0-3">
          <mxGeometry relative="1" as="geometry" />
        </mxCell>
        <mxCell id="WWwP8-xIb5K2eix_RV-0-1" value="&lt;span style=&quot;font-size: 20px;&quot;&gt;START&lt;/span&gt;" style="ellipse;whiteSpace=wrap;html=1;" vertex="1" parent="1">
          <mxGeometry x="930" y="110" width="165" height="100" as="geometry" />
        </mxCell>
        <mxCell id="WWwP8-xIb5K2eix_RV-0-2" value="&lt;font style=&quot;font-size: 20px;&quot;&gt;END&lt;/font&gt;" style="ellipse;whiteSpace=wrap;html=1;" vertex="1" parent="1">
          <mxGeometry x="690" y="1110" width="180" height="110" as="geometry" />
        </mxCell>
        <mxCell id="WWwP8-xIb5K2eix_RV-0-16" style="edgeStyle=orthogonalEdgeStyle;rounded=0;orthogonalLoop=1;jettySize=auto;html=1;exitX=0;exitY=0.75;exitDx=0;exitDy=0;entryX=0.5;entryY=0;entryDx=0;entryDy=0;fontSize=6;" edge="1" parent="1" source="WWwP8-xIb5K2eix_RV-0-3" target="WWwP8-xIb5K2eix_RV-0-4">
          <mxGeometry relative="1" as="geometry" />
        </mxCell>
        <mxCell id="WWwP8-xIb5K2eix_RV-0-30" style="edgeStyle=orthogonalEdgeStyle;rounded=0;orthogonalLoop=1;jettySize=auto;html=1;fontSize=20;" edge="1" parent="1" source="WWwP8-xIb5K2eix_RV-0-3" target="WWwP8-xIb5K2eix_RV-0-11">
          <mxGeometry relative="1" as="geometry" />
        </mxCell>
        <mxCell id="WWwP8-xIb5K2eix_RV-0-3" value="&lt;pre style=&quot;background-color: rgb(43, 43, 43);&quot;&gt;&lt;pre style=&quot;color: rgb(169, 183, 198); font-family: &amp;quot;JetBrains Mono&amp;quot;, monospace;&quot;&gt;String &lt;span style=&quot;color:#9876aa;&quot;&gt;mark&lt;/span&gt;&lt;span style=&quot;color:#cc7832;&quot;&gt;&lt;br&gt;&lt;/span&gt;String &lt;span style=&quot;color:#9876aa;&quot;&gt;model&lt;/span&gt;&lt;span style=&quot;color:#cc7832;&quot;&gt;&lt;br&gt;&lt;/span&gt;&lt;span style=&quot;color:#cc7832;&quot;&gt;int &lt;/span&gt;&lt;span style=&quot;color:#9876aa;&quot;&gt;value&lt;/span&gt;&lt;span style=&quot;color:#cc7832;&quot;&gt;&lt;br&gt;&lt;/span&gt;&lt;span style=&quot;color:#cc7832;&quot;&gt;int &lt;/span&gt;&lt;span style=&quot;color:#9876aa;&quot;&gt;price&lt;/span&gt;&lt;span style=&quot;color:#cc7832;&quot;&gt;&lt;br&gt;&lt;/span&gt;&lt;span style=&quot;color:#cc7832;&quot;&gt;int &lt;/span&gt;&lt;span style=&quot;color:#9876aa;&quot;&gt;sum&lt;/span&gt;&lt;/pre&gt;&lt;pre style=&quot;color: rgb(169, 183, 198); font-family: &amp;quot;JetBrains Mono&amp;quot;, monospace;&quot;&gt;String &lt;span style=&quot;color:#9876aa;&quot;&gt;name&lt;/span&gt;&lt;span style=&quot;color:#cc7832;&quot;&gt;&lt;br&gt;&lt;/span&gt;String &lt;span style=&quot;color:#9876aa;&quot;&gt;gender&lt;/span&gt;&lt;span style=&quot;color:#cc7832;&quot;&gt;&lt;br&gt;&lt;/span&gt;&lt;span style=&quot;color:#cc7832;&quot;&gt;int &lt;/span&gt;&lt;span style=&quot;color:#9876aa;&quot;&gt;age&lt;/span&gt;&lt;span style=&quot;color:#cc7832;&quot;&gt;&lt;br&gt;&lt;/span&gt;&lt;span style=&quot;color:#cc7832;&quot;&gt;int &lt;/span&gt;&lt;span style=&quot;color:#9876aa;&quot;&gt;balance&lt;/span&gt;&lt;span style=&quot;color:#cc7832;&quot;&gt;&lt;br&gt;&lt;/span&gt;&lt;span style=&quot;color:#cc7832;&quot;&gt;boolean &lt;/span&gt;&lt;span style=&quot;color:#9876aa;&quot;&gt;buyCredit&lt;/span&gt;&lt;/pre&gt;&lt;pre style=&quot;&quot;&gt;&lt;span style=&quot;color: rgb(204, 120, 50); font-family: &amp;quot;JetBrains Mono&amp;quot;, monospace;&quot;&gt;int &lt;/span&gt;&lt;span style=&quot;color: rgb(152, 118, 170); font-family: &amp;quot;JetBrains Mono&amp;quot;, monospace;&quot;&gt;limitAge&lt;/span&gt;&lt;span style=&quot;color: rgb(204, 120, 50); font-family: &amp;quot;JetBrains Mono&amp;quot;, monospace;&quot;&gt;&lt;br&gt;&lt;/span&gt;&lt;span style=&quot;color: rgb(204, 120, 50); font-family: &amp;quot;JetBrains Mono&amp;quot;, monospace;&quot;&gt;int &lt;/span&gt;&lt;span style=&quot;color: rgb(152, 118, 170); font-family: &amp;quot;JetBrains Mono&amp;quot;, monospace;&quot;&gt;quantityStock &lt;/span&gt;&lt;span style=&quot;color: rgb(204, 120, 50); font-family: &amp;quot;JetBrains Mono&amp;quot;, monospace;&quot;&gt;&lt;br&gt;&lt;/span&gt;&lt;span style=&quot;color: rgb(204, 120, 50); font-family: &amp;quot;JetBrains Mono&amp;quot;, monospace;&quot;&gt;int &lt;/span&gt;&lt;span style=&quot;color: rgb(152, 118, 170); font-family: &amp;quot;JetBrains Mono&amp;quot;, monospace;&quot;&gt;afterMuch&lt;/span&gt;&lt;span style=&quot;color: rgb(204, 120, 50); font-family: &amp;quot;JetBrains Mono&amp;quot;, monospace;&quot;&gt;&lt;br&gt;&lt;/span&gt;&lt;span style=&quot;color: rgb(204, 120, 50); font-family: &amp;quot;JetBrains Mono&amp;quot;, monospace;&quot;&gt;int &lt;/span&gt;&lt;span style=&quot;color: rgb(152, 118, 170); font-family: &amp;quot;JetBrains Mono&amp;quot;, monospace;&quot;&gt;creditMonth&lt;/span&gt;&lt;/pre&gt;&lt;/pre&gt;" style="shape=parallelogram;perimeter=parallelogramPerimeter;whiteSpace=wrap;html=1;fixedSize=1;gradientColor=none;fillColor=default;" vertex="1" parent="1">
          <mxGeometry x="858.56" y="260" width="307.87" height="231" as="geometry" />
        </mxCell>
        <mxCell id="WWwP8-xIb5K2eix_RV-0-18" style="edgeStyle=orthogonalEdgeStyle;rounded=0;orthogonalLoop=1;jettySize=auto;html=1;entryX=0.25;entryY=0;entryDx=0;entryDy=0;fontSize=6;" edge="1" parent="1" source="WWwP8-xIb5K2eix_RV-0-4" target="WWwP8-xIb5K2eix_RV-0-7">
          <mxGeometry relative="1" as="geometry" />
        </mxCell>
        <mxCell id="WWwP8-xIb5K2eix_RV-0-24" style="edgeStyle=orthogonalEdgeStyle;rounded=0;orthogonalLoop=1;jettySize=auto;html=1;fontSize=20;" edge="1" parent="1" source="WWwP8-xIb5K2eix_RV-0-4" target="WWwP8-xIb5K2eix_RV-0-12">
          <mxGeometry relative="1" as="geometry" />
        </mxCell>
        <mxCell id="WWwP8-xIb5K2eix_RV-0-4" value="&lt;pre style=&quot;background-color:#2b2b2b;color:#a9b7c6;font-family:&#39;JetBrains Mono&#39;,monospace;font-size:9,8pt;&quot;&gt;cs.&lt;span style=&quot;color:#9876aa;&quot;&gt;limitAge &lt;/span&gt;&amp;gt; client.&lt;span style=&quot;color:#9876aa;&quot;&gt;age&lt;/span&gt;&lt;/pre&gt;" style="rhombus;whiteSpace=wrap;html=1;" vertex="1" parent="1">
          <mxGeometry x="580" y="510" width="195" height="160" as="geometry" />
        </mxCell>
        <mxCell id="WWwP8-xIb5K2eix_RV-0-21" style="edgeStyle=orthogonalEdgeStyle;rounded=0;orthogonalLoop=1;jettySize=auto;html=1;entryX=0.5;entryY=0;entryDx=0;entryDy=0;fontSize=20;" edge="1" parent="1" source="WWwP8-xIb5K2eix_RV-0-7" target="WWwP8-xIb5K2eix_RV-0-20">
          <mxGeometry relative="1" as="geometry" />
        </mxCell>
        <mxCell id="WWwP8-xIb5K2eix_RV-0-7" value="&lt;pre style=&quot;background-color:#2b2b2b;color:#a9b7c6;font-family:&#39;JetBrains Mono&#39;,monospace;font-size:9,8pt;&quot;&gt;cs.&lt;span style=&quot;color:#9876aa;&quot;&gt;afterMuch &lt;/span&gt;= cs.&lt;span style=&quot;color:#9876aa;&quot;&gt;limitAge &lt;/span&gt;- client.&lt;span style=&quot;color:#9876aa;&quot;&gt;age&lt;/span&gt;&lt;span style=&quot;color:#cc7832;&quot;&gt;;&lt;/span&gt;&lt;/pre&gt;" style="rounded=0;whiteSpace=wrap;html=1;" vertex="1" parent="1">
          <mxGeometry x="460" y="760" width="295" height="110" as="geometry" />
        </mxCell>
        <mxCell id="WWwP8-xIb5K2eix_RV-0-33" style="edgeStyle=orthogonalEdgeStyle;rounded=0;orthogonalLoop=1;jettySize=auto;html=1;fontSize=20;" edge="1" parent="1" source="WWwP8-xIb5K2eix_RV-0-11" target="WWwP8-xIb5K2eix_RV-0-32">
          <mxGeometry relative="1" as="geometry" />
        </mxCell>
        <mxCell id="WWwP8-xIb5K2eix_RV-0-34" style="edgeStyle=orthogonalEdgeStyle;rounded=0;orthogonalLoop=1;jettySize=auto;html=1;fontSize=20;" edge="1" parent="1" source="WWwP8-xIb5K2eix_RV-0-11" target="WWwP8-xIb5K2eix_RV-0-31">
          <mxGeometry relative="1" as="geometry" />
        </mxCell>
        <mxCell id="WWwP8-xIb5K2eix_RV-0-11" value="&lt;font style=&quot;font-size: 20px;&quot;&gt;boolean clientCredit&lt;/font&gt;" style="rhombus;whiteSpace=wrap;html=1;" vertex="1" parent="1">
          <mxGeometry x="1400" y="440" width="330" height="240" as="geometry" />
        </mxCell>
        <mxCell id="WWwP8-xIb5K2eix_RV-0-26" value="" style="edgeStyle=orthogonalEdgeStyle;rounded=0;orthogonalLoop=1;jettySize=auto;html=1;fontSize=20;" edge="1" parent="1" source="WWwP8-xIb5K2eix_RV-0-12" target="WWwP8-xIb5K2eix_RV-0-25">
          <mxGeometry relative="1" as="geometry" />
        </mxCell>
        <mxCell id="WWwP8-xIb5K2eix_RV-0-12" value="&lt;pre style=&quot;background-color:#2b2b2b;color:#a9b7c6;font-family:&#39;JetBrains Mono&#39;,monospace;font-size:9,8pt;&quot;&gt;client.&lt;span style=&quot;color:#9876aa;&quot;&gt;age &lt;/span&gt;&amp;gt;= cs.&lt;span style=&quot;color:#9876aa;&quot;&gt;limitAge &lt;/span&gt;&amp;amp;&amp;amp; client.&lt;span style=&quot;color:#9876aa;&quot;&gt;balance &lt;/span&gt;&amp;gt;= &lt;/pre&gt;&lt;pre style=&quot;background-color:#2b2b2b;color:#a9b7c6;font-family:&#39;JetBrains Mono&#39;,monospace;font-size:9,8pt;&quot;&gt;&amp;gt;= carOrder.&lt;span style=&quot;color:#9876aa;&quot;&gt;price &lt;/span&gt;* carOrder.&lt;span style=&quot;color:#9876aa;&quot;&gt;value &lt;/span&gt;&amp;amp;&amp;amp; &lt;/pre&gt;&lt;pre style=&quot;background-color:#2b2b2b;color:#a9b7c6;font-family:&#39;JetBrains Mono&#39;,monospace;font-size:9,8pt;&quot;&gt;cs.&lt;span style=&quot;color:#9876aa;&quot;&gt;quantityStock &lt;/span&gt;&amp;gt; &lt;span style=&quot;color:#6897bb;&quot;&gt;0&lt;/span&gt;&lt;/pre&gt;" style="rounded=0;whiteSpace=wrap;html=1;" vertex="1" parent="1">
          <mxGeometry x="790" y="730" width="343.57" height="150" as="geometry" />
        </mxCell>
        <mxCell id="WWwP8-xIb5K2eix_RV-0-23" value="" style="edgeStyle=orthogonalEdgeStyle;rounded=0;orthogonalLoop=1;jettySize=auto;html=1;fontSize=20;" edge="1" parent="1" source="WWwP8-xIb5K2eix_RV-0-20" target="WWwP8-xIb5K2eix_RV-0-2">
          <mxGeometry relative="1" as="geometry" />
        </mxCell>
        <mxCell id="WWwP8-xIb5K2eix_RV-0-20" value="&lt;pre style=&quot;background-color:#2b2b2b;color:#a9b7c6;font-family:&#39;JetBrains Mono&#39;,monospace;font-size:9,8pt;&quot;&gt;&lt;span style=&quot;white-space: normal;&quot;&gt; &lt;/span&gt;&lt;span style=&quot;white-space: normal; color: rgb(106, 135, 89);&quot;&gt;&quot; come through after &quot; &lt;/span&gt;&lt;span style=&quot;white-space: normal;&quot;&gt;+&amp;nbsp;&lt;/span&gt;&lt;br&gt;&lt;/pre&gt;&lt;pre style=&quot;background-color:#2b2b2b;color:#a9b7c6;font-family:&#39;JetBrains Mono&#39;,monospace;font-size:9,8pt;&quot;&gt;cs.&lt;span style=&quot;color:#9876aa;&quot;&gt;afterMuch &lt;/span&gt;+ &lt;span style=&quot;color:#6a8759;&quot;&gt;&quot; year.&quot;&lt;/span&gt;&lt;/pre&gt;" style="shape=parallelogram;perimeter=parallelogramPerimeter;whiteSpace=wrap;html=1;fixedSize=1;gradientColor=none;fillColor=default;" vertex="1" parent="1">
          <mxGeometry x="492.5" y="900" width="227.5" height="80" as="geometry" />
        </mxCell>
        <mxCell id="WWwP8-xIb5K2eix_RV-0-29" style="edgeStyle=orthogonalEdgeStyle;rounded=0;orthogonalLoop=1;jettySize=auto;html=1;fontSize=20;" edge="1" parent="1" source="WWwP8-xIb5K2eix_RV-0-25" target="WWwP8-xIb5K2eix_RV-0-2">
          <mxGeometry relative="1" as="geometry" />
        </mxCell>
        <mxCell id="WWwP8-xIb5K2eix_RV-0-25" value="&lt;pre style=&quot;background-color:#2b2b2b;color:#a9b7c6;font-family:&#39;JetBrains Mono&#39;,monospace;font-size:9,8pt;&quot;&gt;&lt;pre style=&quot;font-family: &amp;quot;JetBrains Mono&amp;quot;, monospace;&quot;&gt;&lt;span style=&quot;color:#6a8759;&quot;&gt;&quot; congratulations on your purchase.&lt;/span&gt;&lt;/pre&gt;&lt;pre style=&quot;font-family: &amp;quot;JetBrains Mono&amp;quot;, monospace;&quot;&gt;&lt;span style=&quot;color:#6a8759;&quot;&gt; Your balance &quot;&lt;/span&gt;&lt;/pre&gt;&lt;/pre&gt;" style="shape=parallelogram;perimeter=parallelogramPerimeter;whiteSpace=wrap;html=1;fixedSize=1;gradientColor=none;fillColor=default;" vertex="1" parent="1">
          <mxGeometry x="816.78" y="920" width="290" height="100" as="geometry" />
        </mxCell>
        <mxCell id="WWwP8-xIb5K2eix_RV-0-42" style="edgeStyle=orthogonalEdgeStyle;rounded=0;orthogonalLoop=1;jettySize=auto;html=1;entryX=0.5;entryY=0;entryDx=0;entryDy=0;fontSize=20;" edge="1" parent="1" source="WWwP8-xIb5K2eix_RV-0-31" target="WWwP8-xIb5K2eix_RV-0-39">
          <mxGeometry relative="1" as="geometry" />
        </mxCell>
        <mxCell id="WWwP8-xIb5K2eix_RV-0-31" value="boolean == false;" style="rounded=0;whiteSpace=wrap;html=1;" vertex="1" parent="1">
          <mxGeometry x="1680" y="790" width="290" height="150" as="geometry" />
        </mxCell>
        <mxCell id="WWwP8-xIb5K2eix_RV-0-36" style="edgeStyle=orthogonalEdgeStyle;rounded=0;orthogonalLoop=1;jettySize=auto;html=1;entryX=0.561;entryY=-0.001;entryDx=0;entryDy=0;entryPerimeter=0;fontSize=20;" edge="1" parent="1" source="WWwP8-xIb5K2eix_RV-0-32" target="WWwP8-xIb5K2eix_RV-0-35">
          <mxGeometry relative="1" as="geometry" />
        </mxCell>
        <mxCell id="WWwP8-xIb5K2eix_RV-0-32" value="boolean == true;&lt;br&gt;&lt;pre style=&quot;background-color:#2b2b2b;color:#a9b7c6;font-family:&#39;JetBrains Mono&#39;,monospace;font-size:9,8pt;&quot;&gt;&lt;span style=&quot;color:#cc7832;&quot;&gt;int &lt;/span&gt;creditSum = carOrder.&lt;span style=&quot;color:#9876aa;&quot;&gt;sum &lt;/span&gt;-&lt;/pre&gt;&lt;pre style=&quot;background-color:#2b2b2b;color:#a9b7c6;font-family:&#39;JetBrains Mono&#39;,monospace;font-size:9,8pt;&quot;&gt; client.&lt;span style=&quot;color:#9876aa;&quot;&gt;balance&lt;/span&gt;&lt;span style=&quot;color:#cc7832;&quot;&gt;;&lt;br&gt;&lt;/span&gt;&lt;span style=&quot;color:#cc7832;&quot;&gt;int &lt;/span&gt;sumMonth = creditSum /&lt;/pre&gt;&lt;pre style=&quot;background-color:#2b2b2b;color:#a9b7c6;font-family:&#39;JetBrains Mono&#39;,monospace;font-size:9,8pt;&quot;&gt; cs.&lt;span style=&quot;color:#9876aa;&quot;&gt;creditMonth&lt;/span&gt;&lt;span style=&quot;color:#cc7832;&quot;&gt;;&lt;/span&gt;&lt;/pre&gt;" style="rounded=0;whiteSpace=wrap;html=1;" vertex="1" parent="1">
          <mxGeometry x="1270" y="750" width="300" height="170" as="geometry" />
        </mxCell>
        <mxCell id="WWwP8-xIb5K2eix_RV-0-38" style="edgeStyle=orthogonalEdgeStyle;rounded=0;orthogonalLoop=1;jettySize=auto;html=1;fontSize=20;" edge="1" parent="1" source="WWwP8-xIb5K2eix_RV-0-35" target="WWwP8-xIb5K2eix_RV-0-37">
          <mxGeometry relative="1" as="geometry" />
        </mxCell>
        <mxCell id="WWwP8-xIb5K2eix_RV-0-35" value="&lt;pre style=&quot;background-color:#2b2b2b;color:#a9b7c6;font-family:&#39;JetBrains Mono&#39;,monospace;font-size:9,8pt;&quot;&gt;&lt;pre style=&quot;font-family: &amp;quot;JetBrains Mono&amp;quot;, monospace;&quot;&gt;&lt;span style=&quot;color:#6a8759;&quot;&gt;congratulations on buying &lt;/span&gt;&lt;/pre&gt;&lt;pre style=&quot;font-family: &amp;quot;JetBrains Mono&amp;quot;, monospace;&quot;&gt;&lt;span style=&quot;color:#6a8759;&quot;&gt;a car on credit.&lt;/span&gt;&lt;/pre&gt;&lt;pre style=&quot;font-family: &amp;quot;JetBrains Mono&amp;quot;, monospace;&quot;&gt;&lt;br&gt;&lt;/pre&gt;&lt;/pre&gt;" style="shape=parallelogram;perimeter=parallelogramPerimeter;whiteSpace=wrap;html=1;fixedSize=1;gradientColor=none;fillColor=default;" vertex="1" parent="1">
          <mxGeometry x="1250" y="1040" width="300" height="120" as="geometry" />
        </mxCell>
        <mxCell id="WWwP8-xIb5K2eix_RV-0-37" value="&lt;font style=&quot;font-size: 20px;&quot;&gt;END&lt;/font&gt;" style="ellipse;whiteSpace=wrap;html=1;" vertex="1" parent="1">
          <mxGeometry x="1550" y="1250" width="180" height="110" as="geometry" />
        </mxCell>
        <mxCell id="WWwP8-xIb5K2eix_RV-0-41" style="edgeStyle=orthogonalEdgeStyle;rounded=0;orthogonalLoop=1;jettySize=auto;html=1;entryX=0.5;entryY=0;entryDx=0;entryDy=0;fontSize=20;" edge="1" parent="1" source="WWwP8-xIb5K2eix_RV-0-39" target="WWwP8-xIb5K2eix_RV-0-37">
          <mxGeometry relative="1" as="geometry" />
        </mxCell>
        <mxCell id="WWwP8-xIb5K2eix_RV-0-39" value="&lt;pre style=&quot;background-color:#2b2b2b;color:#a9b7c6;font-family:&#39;JetBrains Mono&#39;,monospace;font-size:9,8pt;&quot;&gt;&lt;span style=&quot;color:#6a8759;&quot;&gt;&quot; come back later.&quot;&lt;/span&gt;&lt;/pre&gt;" style="shape=parallelogram;perimeter=parallelogramPerimeter;whiteSpace=wrap;html=1;fixedSize=1;gradientColor=none;fillColor=default;" vertex="1" parent="1">
          <mxGeometry x="1675" y="1040" width="300" height="120" as="geometry" />
        </mxCell>
      </root>
    </mxGraphModel>
  </diagram>
</mxfile>
